<svg width="36" height="30" viewBox="0 0 36 30" fill="none" xmlns="http://www.w3.org/2000/svg">
<path fill-rule="evenodd" clip-rule="evenodd" d="M32.8523 12.2264C31.6309 14.9437 28.4629 18.021 25.7963 20.353C22.8723 22.909 19.4416 24.985 17.0283 26.7664C11.6483 23.1064 1.39894 18.393 2.27361 9.01837C2.56561 5.88771 5.81227 2.0437 10.6123 3.0317C13.3843 3.60104 14.1203 6.44637 15.5309 8.80637C15.9509 9.78237 16.7949 8.36771 16.8149 9.23304C17.2096 9.69437 17.4389 10.3184 18.5243 10.0877C19.7003 9.53037 18.7109 8.46371 18.7389 7.30904C20.5309 1.26904 33.4736 0.0437044 33.7083 8.16237C33.7429 9.37037 33.3429 11.1384 32.8523 12.2264ZM35.6323 5.38237C33.9163 -0.801627 24.0403 -1.55763 19.1669 2.60371C18.0216 3.58237 17.6123 4.76504 16.6003 6.23837C15.4643 3.08504 13.3789 0.901038 9.75761 0.679705C4.27227 0.343705 0.700272 3.99704 0.134939 8.37704C-1.05706 17.613 5.90694 22.0397 10.8269 25.485C13.4189 27.2997 16.2456 29.6584 18.7389 29.121C19.6003 28.5877 18.0309 27.577 18.5243 27.4104C21.9856 25.757 25.2509 23.785 28.1483 21.2077C30.7989 18.8477 33.9176 15.717 35.2056 12.4397C35.9003 10.6717 36.2083 7.45837 35.6323 5.38237Z" fill="#E03E3E"/>
<path d="M32.8523 12.2264C31.6309 14.9437 28.4629 18.021 25.7963 20.353C22.8723 22.909 19.4416 24.985 17.0283 26.7664C11.6483 23.1064 1.39894 18.393 2.27361 9.01837C2.56561 5.88771 5.81227 2.0437 10.6123 3.0317C13.3843 3.60104 14.1203 6.44637 15.5309 8.80637C15.9509 9.78237 16.7949 8.36771 16.8149 9.23304C17.2096 9.69437 17.4389 10.3184 18.5243 10.0877C19.7003 9.53037 18.7109 8.46371 18.7389 7.30904C20.5309 1.26904 33.4736 0.0437044 33.7083 8.16237C33.7429 9.37037 33.3429 11.1384 32.8523 12.2264Z" fill="#E03E3E"/>
</svg>
