<svg width="44" height="37" viewBox="0 0 44 37" fill="none" xmlns="http://www.w3.org/2000/svg">
<path fill-rule="evenodd" clip-rule="evenodd" d="M40.3475 24.1753C39.7288 27.4273 39.7461 31.0247 37.7875 33.134C27.2715 34.0367 16.2408 32.7193 5.46746 32.814C3.88879 26.818 3.08479 20.05 2.90746 12.654C3.14346 12.3553 3.4888 12.17 3.8688 12.014C9.13413 12.186 16.2635 12.3607 22.7488 12.654C29.2021 12.946 35.7328 11.7167 40.9875 13.6153C41.9888 17.1753 40.9821 20.842 40.3475 24.1753ZM6.10746 4.33399C8.91013 3.22999 13.4008 2.32865 16.6675 2.73532C17.6581 3.45132 17.7075 5.10732 17.9475 6.57399C21.1661 5.90999 25.7088 6.57665 29.4675 6.89399C33.3595 7.22199 39.3741 5.39666 38.7488 9.77399C38.3955 11.0167 36.8875 10.3527 36.1888 10.4153C31.6741 10.8153 24.9195 11.1153 19.2275 10.7353C15.1315 10.4593 11.0928 9.36599 6.10746 9.77399C6.16613 7.87266 5.32079 5.99532 6.10746 4.33399ZM43.8688 13.9327C43.4688 12.1993 42.0635 12.3033 41.3088 10.4153C41.5008 8.62065 41.1395 7.38332 40.6675 6.25399C36.1701 3.28465 26.7888 5.20199 19.8688 4.65399C20.0995 1.00599 16.5768 -0.554014 13.1488 0.17532C9.65013 0.917986 5.33013 0.751321 4.1888 2.41532C2.75946 4.49265 3.86213 6.60465 4.1888 9.45399C2.57013 9.96999 1.04213 10.5767 0.0287935 11.694C-0.253873 17.0847 1.62213 22.4047 2.26746 27.3727C2.62613 30.1287 1.99546 33.1673 4.1888 35.0527C12.1408 35.366 22.6475 36.2633 30.7488 36.334C33.0661 36.3553 36.2475 36.5087 38.1075 36.014C42.6568 34.8087 41.9168 29.1287 42.5888 23.5353C42.9928 20.154 44.4315 16.3807 43.8688 13.9327Z" fill="#F0ECE4"/>
</svg>
