<svg width="43" height="37" viewBox="0 0 43 37" fill="none" xmlns="http://www.w3.org/2000/svg">
<path fill-rule="evenodd" clip-rule="evenodd" d="M38.2124 24.4768C37.6351 27.2195 34.4418 28.5675 34.1444 31.0488C24.7671 31.3701 15.4618 31.7648 7.54976 33.5528C6.46576 33.2795 6.9271 31.4608 5.6711 31.3621C4.6511 31.1301 4.6271 29.9021 3.48176 29.7955C2.92176 25.5595 3.34176 20.3408 2.8551 16.0301C3.12843 14.8461 4.29376 16.5648 5.04576 16.9675C8.38043 18.7555 12.3644 20.6421 16.6231 21.9728C15.9258 27.7821 24.1058 27.2755 26.6351 24.7888C26.8538 23.6408 27.1751 22.4115 26.6351 21.3488C29.0351 17.3875 34.3698 16.3581 37.2738 12.9008C37.2658 16.9141 38.9778 20.8448 38.2124 24.4768ZM23.5058 22.5995C23.1178 23.9675 20.1484 24.1301 18.8138 23.5395C18.7671 21.8155 22.3498 22.0781 23.5058 22.5995ZM2.22977 10.3968C11.7404 10.7888 23.7951 8.54748 34.1444 8.51814C35.0538 8.51814 36.7164 7.97681 37.2738 9.14481C37.6484 10.4488 36.2964 9.75547 35.7098 10.0848C35.1018 10.4261 34.7671 11.2208 34.1444 11.6488C30.7658 13.9808 26.4244 16.1315 23.5058 19.1568C17.5298 20.2141 13.8284 17.8848 9.11377 16.0301C6.34977 14.9408 1.44843 14.2395 2.22977 10.3968ZM13.4938 4.13814C18.2804 3.71148 22.7351 2.94881 28.2004 3.19947C27.6458 3.79147 27.9724 5.26747 27.8871 6.32881C23.0924 6.43547 18.7951 7.04214 13.8071 6.95414C13.5444 6.17547 13.3978 5.28081 13.4938 4.13814ZM42.5938 16.0301C42.3511 12.1315 42.3778 7.86347 40.4044 5.39281C37.4218 5.43814 33.2431 5.94747 31.0164 5.70481C30.7018 3.67281 31.7538 2.21947 31.0164 0.695474C29.0524 -0.553859 26.4631 0.230138 23.8191 0.386138C19.2551 0.650138 13.8058 0.204807 10.9911 2.26214C10.4618 3.50614 10.7444 5.56214 10.6778 7.26881C6.95643 7.38614 3.10176 8.39548 0.352431 8.51814C-0.175569 15.7528 -0.0555693 26.8328 0.352431 35.1155C1.07376 35.7515 1.94043 36.2381 2.54176 36.9941C11.5778 34.8101 23.7191 34.6435 33.8311 33.8648C37.0924 33.6128 39.9258 32.4955 42.2804 31.0488C42.1431 26.3475 42.8991 20.9541 42.5938 16.0301Z" fill="#F0ECE4"/>
</svg>
