<svg width="32" height="33" viewBox="0 0 32 33" fill="none" xmlns="http://www.w3.org/2000/svg">
<path d="M1.7433 16.423C7.56329 19.511 8.83396 6.40164 2.3833 8.10297C1.3153 8.3843 0.521962 8.7283 0.143295 10.0216C-0.358038 11.7403 0.523295 15.775 1.7433 16.423ZM26.7033 7.78297C23.4433 8.61763 21.258 15.9203 25.4233 16.7403C31.2006 17.8816 33.8286 5.95097 26.7033 7.78297ZM22.8633 19.9416C21.734 17.975 21.53 12.499 17.7433 11.6203C11.8766 10.2643 11.106 16.295 8.7833 19.303C6.3473 21.9536 2.10463 21.8003 1.4233 25.0616C0.715295 28.4443 4.3113 31.895 6.54463 32.423C10.5033 33.355 12.9126 30.2403 15.5033 30.1803C17.306 30.1416 21.2913 32.663 24.4633 32.103C27.1766 31.623 29.194 28.7323 28.3033 25.3816C27.622 22.8163 24.2766 22.4043 22.8633 19.9416ZM22.5446 0.10297C16.742 -0.910364 14.3726 5.80297 17.1046 9.38164C23.298 10.899 25.618 3.8523 22.5446 0.10297ZM11.3433 9.70163C15.0753 9.02697 14.5993 2.3243 11.3433 1.06164C7.40729 -0.462364 5.65396 3.80297 7.5033 8.42297C9.14996 8.81097 9.63529 10.011 11.3433 9.70163Z" fill="#F0ECE4"/>
</svg>
