<svg width="22" height="26" viewBox="0 0 22 26" fill="none" xmlns="http://www.w3.org/2000/svg">
<path fill-rule="evenodd" clip-rule="evenodd" d="M6.41115 12.1717C5.58582 11.5317 6.73915 10.1744 7.05115 9.61169C7.90448 10.281 6.25382 11.141 6.41115 12.1717ZM4.49248 15.0517C3.77515 14.9144 4.36182 13.4744 4.17115 12.8117C5.10182 12.817 4.92715 14.6197 4.49248 15.0517ZM3.21115 6.09035C2.48982 5.85435 3.08582 4.29702 2.88982 3.53169C3.31248 3.85969 4.06982 3.84635 4.49248 4.17169C4.29115 5.03835 3.15515 4.96902 3.21115 6.09035ZM21.7711 9.93169C16.1458 5.37702 8.25515 3.36236 1.29115 0.0130234C1.20582 -0.02831 1.06182 0.04369 0.971149 0.0130234C0.651149 0.0103567 0.591149 0.270357 0.329815 0.330357C0.135149 0.349023 -0.0475183 0.37969 0.0111484 0.650356C0.979148 7.37169 -0.727518 19.5184 2.25115 25.2917C6.44848 25.7477 8.52182 22.093 12.1711 19.5317C13.3978 18.6717 15.3591 17.653 17.2911 16.3304C19.8645 14.5704 22.6058 13.633 21.7711 9.93169Z" fill="#F0ECE4"/>
</svg>
