<svg width="186" height="335" viewBox="0 0 186 335" fill="none" xmlns="http://www.w3.org/2000/svg">
<path d="M109.502 275.846C112.689 274.141 115.134 272.887 117.68 271.415C132.479 262.758 147.059 253.998 161.974 245.661C165.743 243.562 170.183 242.31 174.477 241.656C179.311 240.987 183.099 243.425 185.011 248.181C186.764 252.996 185.589 257.24 181.792 260.257C178.257 262.998 174.269 264.995 170.282 266.991C139.605 282.337 111.583 301.987 85.6312 324.336C82.6347 327.062 79.5365 330.008 76.1462 332.15C67.7798 337.558 59.0695 334.549 55.7249 324.862C54.2062 320.689 53.6482 316.167 53.3086 311.747C51.1174 291.28 49.3048 270.858 41.5966 251.672C38.0054 242.802 33.7153 234.004 29.4837 225.366C26.3467 219.238 26.3858 214.862 30.0508 210.984C33.876 207.047 40.2237 206.554 45.2949 210.524C48.6613 213.297 51.6209 216.946 53.5615 220.783C62.4467 237.723 67.8097 255.944 71.5132 274.588C72.2595 278.133 73.1075 281.459 73.9274 285.704C95.2774 262.667 109.887 212.641 105.032 179.876C102.237 180.167 99.3834 180.297 96.5448 180.966C80.2708 185.072 64.514 182.629 50.2653 174.366C22.0448 158.103 5.71081 133.151 0.609929 101.203C-2.39479 82.4869 5.9027 66.9266 21.1534 59.0131C30.9326 53.9998 41.1681 53.7275 51.6395 56.0955C65.8537 59.2822 77.7572 66.5813 88.382 76.345C102.213 88.94 111.49 104.465 118.118 121.681C119.564 125.153 120.63 128.581 122.558 133.877C124.985 130.086 126.919 127.928 127.82 125.419C139.479 95.1863 136.406 66.3173 119.035 39.0169C116.221 34.7708 112.184 31.1513 108.264 27.8528C103.571 23.9267 98.24 22.2321 91.7192 24.2421C84.2377 26.6016 79.7074 24.6156 77.3579 19.6549C74.8332 14.2128 77.6654 7.5479 84.024 3.59785C90.863 -0.527017 98.0264 -0.771603 105.629 1.18664C117.15 4.44498 126.184 11.3343 133.823 20.3672C162.5 54.8205 168.641 120.012 133.228 158.709C129.984 162.252 128.139 165.65 128.435 170.45C130.933 205.707 126.601 239.635 110.022 271.295C109.411 272.607 109.66 273.789 109.502 275.846ZM101.991 154.085C102.223 152.729 102.673 151.474 102.482 150.453C97.8419 127.243 88.6322 106.423 70.2406 90.7629C63.1141 84.633 55.0573 79.9322 45.7369 78.2357C30.7806 75.5009 20.9906 83.9712 23.5108 98.8657C27.8178 123.651 40.2878 143.466 62.9417 155.394C75.9075 162.125 89.172 162.204 101.991 154.085Z" fill="#52514B"/>
</svg>
