<svg width="46" height="47" viewBox="0 0 46 47" fill="none" xmlns="http://www.w3.org/2000/svg">
<path fill-rule="evenodd" clip-rule="evenodd" d="M35.5402 20.7246C34.3789 21.7033 36.2736 22.278 36.1696 23.242C33.4816 27.962 29.4882 34.1073 22.6456 33.6206C19.2349 33.3766 15.9216 31.3046 13.5429 28.9526C12.7709 28.19 11.2549 26.7966 11.2816 25.6606C11.3002 24.8166 12.4509 23.406 10.7682 23.474C9.68025 23.5166 8.75625 25.03 8.22291 25.8446C7.84158 26.4273 6.96158 28.1313 7.11358 28.7686C7.23091 29.2606 8.00425 29.7393 8.49891 29.6273C9.17225 29.4766 9.26691 28.606 10.0656 28.5873C14.0442 36.5473 26.1589 40.0033 33.0242 32.9913C34.9749 30.998 35.6002 28.5753 37.4282 26.0726C38.6056 26.0473 38.3776 27.4273 39.9429 27.0153C41.4416 24.366 38.4122 19.978 35.5402 20.7246ZM17.9202 17.2353C17.8136 16.7686 17.5016 16.4406 17.0949 16.2353C16.2682 15.8166 15.0509 15.9006 14.3656 16.3526C12.8176 17.3726 12.8216 19.6286 13.8536 20.998C16.1789 22.0126 18.4296 19.4806 17.9202 17.2353ZM31.5349 18.9673C32.3736 18.5246 32.2936 17.4393 32.3082 16.634C32.3176 16.0753 32.1776 15.61 31.9442 15.25C31.0562 13.8686 28.8216 13.9966 28.4349 16.134C28.0682 18.1673 29.4016 20.0926 31.5349 18.9673ZM39.6282 34.4566C36.7256 39.0273 30.5562 44.6486 22.6456 43.73C14.4496 42.7793 5.05491 33.3926 3.14691 26.11C0.210913 14.918 10.4296 4.77663 19.5002 3.54463C22.4096 3.14997 26.3842 3.38597 28.6216 4.16463C32.1789 5.40197 37.9229 10.1526 40.2576 14.0553C44.1202 20.5113 43.7869 27.9126 39.6282 34.4566ZM44.6602 15.602C43.9069 13.8193 42.3589 11.8793 40.8869 10.0366C37.9789 6.39796 36.5962 4.8673 32.3962 2.61797C28.4442 0.503299 21.7349 -1.1847 15.4109 1.07263C7.33358 3.95663 -0.0490875 11.9486 0.000245851 21.4753C0.0322459 27.5193 2.26958 32.906 5.34691 36.6206C6.82958 38.41 10.2082 41.514 13.5242 43.4206C16.3429 45.0433 20.2429 45.738 23.8242 46.358H24.7682C30.9536 45.8606 33.8629 44.846 37.4282 40.9486C40.1696 37.9486 43.1736 34.8393 44.6602 30.438C46.2962 25.5966 46.4869 19.918 44.6602 15.602Z" fill="#6B4E41"/>
</svg>
