<svg width="35" height="35" viewBox="0 0 35 35" fill="none" xmlns="http://www.w3.org/2000/svg">
<path fill-rule="evenodd" clip-rule="evenodd" d="M18.4966 30.6802C17.4566 28.9522 18.802 24.8402 17.7753 23.0975C13.8473 21.1362 6.40729 23.3922 2.61529 22.7375V10.8268C9.18996 10.6482 15.0646 11.4802 18.858 9.02415C18.9686 7.70815 18.8006 6.67348 18.4966 5.77482C22.5766 10.1162 26.35 14.7655 30.4073 19.1308C27.7566 24.2975 22.3846 26.7468 18.4966 30.6802ZM16.3313 0.00015156C14.9246 1.48148 15.894 5.33749 15.6086 7.93882C10.9966 7.06682 4.24862 8.27348 0.449957 8.30148C-0.179376 13.4055 -0.226043 20.9922 0.81129 25.6242C4.56729 26.4588 10.7553 24.7695 14.8873 25.9855C15.1113 28.7695 14.2966 32.5922 15.6086 34.2868C18.4246 35.1388 20.1313 33.0882 21.7446 31.7615C26.6473 27.7308 31.2153 23.7682 34.0166 18.0455C28.0086 12.1428 23.1846 5.05749 16.3313 0.00015156Z" fill="#52514B"/>
</svg>
