<svg width="24" height="24" viewBox="0 0 24 24" fill="none" xmlns="http://www.w3.org/2000/svg">
<mask id="path-1-inside-1_25_5909" fill="white">
<path fill-rule="evenodd" clip-rule="evenodd" d="M19.2206 19.8415C18.818 20.7588 16.6766 18.7415 15.7006 17.9215C14.4593 16.8775 13.254 15.6615 12.5006 14.7202C9.58197 16.3882 7.65264 19.0455 5.46064 21.4402C3.99531 20.7708 2.92864 19.7055 2.26064 18.2402C4.3833 15.9895 7.03664 14.2708 9.62064 12.4802C8.54064 8.33351 5.14731 6.50018 2.58064 3.84151C2.72197 3.55484 2.86064 3.26818 3.22064 3.20151C3.69397 2.82951 4.02597 2.82951 4.50064 3.20151C6.94597 5.34151 9.02331 7.85218 11.2206 10.2402C12.638 9.34684 14.0713 7.98818 15.3806 6.72018C16.5166 5.62018 17.6153 3.53884 19.2206 3.84151C18.8366 6.57884 15.0806 8.63884 13.7806 11.5215C14.6726 12.7802 15.7566 14.5082 16.9806 16.0002C17.9193 17.1468 20.4073 18.4402 19.2206 19.8415ZM16.6606 11.2015C18.87 8.92951 21.3633 6.94418 22.4193 3.52151C20.7153 2.25084 20.2473 0.482843 18.2606 0.641509C15.6686 0.846843 13.6353 6.06284 10.9006 6.40151C9.09531 3.83084 6.99797 1.55484 4.18064 0.00017477C3.13131 1.40417 0.969972 1.69618 0.020639 3.20151C1.85397 6.48684 4.77397 8.68818 6.74064 11.8415C5.03797 14.3202 -0.375361 15.8375 0.020639 19.2015C0.220639 20.8962 3.92597 23.0348 5.14064 23.6802C7.94597 22.0055 9.88464 19.4642 12.1806 17.2815C14.8833 17.8708 16.846 23.5295 19.5406 23.3602C21.142 23.2602 21.882 20.9615 23.0606 19.5215C21.0926 16.5815 18.046 14.7215 16.6606 11.2015Z"/>
</mask>
<path fill-rule="evenodd" clip-rule="evenodd" d="M19.2206 19.8415C18.818 20.7588 16.6766 18.7415 15.7006 17.9215C14.4593 16.8775 13.254 15.6615 12.5006 14.7202C9.58197 16.3882 7.65264 19.0455 5.46064 21.4402C3.99531 20.7708 2.92864 19.7055 2.26064 18.2402C4.3833 15.9895 7.03664 14.2708 9.62064 12.4802C8.54064 8.33351 5.14731 6.50018 2.58064 3.84151C2.72197 3.55484 2.86064 3.26818 3.22064 3.20151C3.69397 2.82951 4.02597 2.82951 4.50064 3.20151C6.94597 5.34151 9.02331 7.85218 11.2206 10.2402C12.638 9.34684 14.0713 7.98818 15.3806 6.72018C16.5166 5.62018 17.6153 3.53884 19.2206 3.84151C18.8366 6.57884 15.0806 8.63884 13.7806 11.5215C14.6726 12.7802 15.7566 14.5082 16.9806 16.0002C17.9193 17.1468 20.4073 18.4402 19.2206 19.8415ZM16.6606 11.2015C18.87 8.92951 21.3633 6.94418 22.4193 3.52151C20.7153 2.25084 20.2473 0.482843 18.2606 0.641509C15.6686 0.846843 13.6353 6.06284 10.9006 6.40151C9.09531 3.83084 6.99797 1.55484 4.18064 0.00017477C3.13131 1.40417 0.969972 1.69618 0.020639 3.20151C1.85397 6.48684 4.77397 8.68818 6.74064 11.8415C5.03797 14.3202 -0.375361 15.8375 0.020639 19.2015C0.220639 20.8962 3.92597 23.0348 5.14064 23.6802C7.94597 22.0055 9.88464 19.4642 12.1806 17.2815C14.8833 17.8708 16.846 23.5295 19.5406 23.3602C21.142 23.2602 21.882 20.9615 23.0606 19.5215C21.0926 16.5815 18.046 14.7215 16.6606 11.2015Z" fill="#52514B"/>
<path d="M19.2206 19.8415L-13.7434 5.37183L-11.6378 0.574906L-8.25234 -3.42296L19.2206 19.8415ZM15.7006 17.9215L-7.45693 45.4847L-7.46393 45.4788L-7.47093 45.4729L15.7006 17.9215ZM12.5006 14.7202L-5.3619 -16.5357L21.37 -31.8128L40.608 -7.7737L12.5006 14.7202ZM5.46064 21.4402L32.0154 45.7475L14.3291 65.069L-9.49685 54.1858L5.46064 21.4402ZM2.26064 18.2402L-30.4962 33.173L-40.5364 11.1487L-23.929 -6.46004L2.26064 18.2402ZM9.62064 12.4802L44.4584 3.40667L50.7973 27.7447L30.1257 42.0697L9.62064 12.4802ZM2.58064 3.84151L-23.3194 28.8453L-40.904 10.6304L-29.7083 -12.0777L2.58064 3.84151ZM3.22064 3.20151L25.4657 31.5062L18.4943 36.9851L9.77585 38.5997L3.22064 3.20151ZM4.50064 3.20151L26.707 -25.1335L27.4748 -24.5318L28.2089 -23.8894L4.50064 3.20151ZM11.2206 10.2402L30.4164 40.6955L5.04017 56.6899L-15.2708 34.6165L11.2206 10.2402ZM15.3806 6.72018L-9.66374 -19.1406L-9.66212 -19.1422L15.3806 6.72018ZM19.2206 3.84151L25.8905 -31.5352L59.6432 -25.1716L54.8716 8.84271L19.2206 3.84151ZM13.7806 11.5215L-15.5913 32.337L-27.5122 15.516L-19.0366 -3.27812L13.7806 11.5215ZM16.9806 16.0002L44.8132 -6.83294L44.8253 -6.81819L44.8373 -6.80344L16.9806 16.0002ZM16.6606 11.2015L-16.8384 24.3854L-25.3481 2.76303L-9.14866 -13.8959L16.6606 11.2015ZM22.4193 3.52151L43.9397 -25.338L64.311 -10.1472L56.8192 14.135L22.4193 3.52151ZM18.2606 0.641509L21.1267 36.5272L21.1151 36.5282L21.1036 36.5291L18.2606 0.641509ZM10.9006 6.40151L15.3252 42.1286L-6.13335 44.786L-18.5601 27.0913L10.9006 6.40151ZM4.18064 0.00017477L-24.6555 -21.5516L-5.88217 -46.6701L21.5738 -31.5193L4.18064 0.00017477ZM0.020639 3.20151L-31.4159 20.7442L-41.8321 2.07838L-30.4298 -16.0019L0.020639 3.20151ZM6.74064 11.8415L37.2867 -7.20942L49.7621 12.7935L36.4141 32.225L6.74064 11.8415ZM0.020639 19.2015L-35.7312 23.4209L-35.7325 23.4103L0.020639 19.2015ZM5.14064 23.6802L23.5933 54.5913L6.16992 64.9924L-11.7498 55.4719L5.14064 23.6802ZM12.1806 17.2815L-12.6231 -8.81015L1.20676 -21.9573L19.8504 -17.892L12.1806 17.2815ZM19.5406 23.3602L17.2828 -12.569L17.2969 -12.5698L19.5406 23.3602ZM23.0606 19.5215L52.9768 -0.50402L67.8217 21.6727L50.9185 42.3237L23.0606 19.5215ZM19.2206 19.8415L52.1847 34.3112C48.3702 43.0012 40.7296 50.9702 29.761 54.4081C20.5479 57.2959 12.8169 55.7526 9.33387 54.8207C2.65305 53.0333 -1.99633 49.702 -2.87922 49.088C-5.38164 47.3476 -8.74972 44.3985 -7.45693 45.4847L15.7006 17.9215L38.8582 -9.64164C41.127 -7.73548 39.3176 -9.26594 38.2305 -10.022C38.0553 -10.1438 34.0777 -13.0916 27.9422 -14.7331C24.7317 -15.592 17.2418 -17.1218 8.22659 -14.2961C-2.54396 -10.9202 -10.0296 -3.0888 -13.7434 5.37183L19.2206 19.8415ZM15.7006 17.9215L-7.47093 45.4729C-10.0983 43.2632 -13.0699 40.384 -15.6068 37.2141L12.5006 14.7202L40.608 -7.7737C40.2515 -8.2192 39.9716 -8.53623 39.8056 -8.7192C39.6304 -8.91235 39.4967 -9.04999 39.4081 -9.13885C39.2511 -9.29627 39.0911 -9.44579 38.8722 -9.62987L15.7006 17.9215ZM12.5006 14.7202L30.3632 45.976C33.0847 44.4207 34.6039 42.8165 34.7236 42.6913C34.7668 42.6461 34.7527 42.6592 34.6569 42.7659C34.5554 42.8788 34.4179 43.0343 34.1834 43.3027C34.0567 43.4477 33.9572 43.5619 33.7971 43.7454C33.654 43.9094 33.4867 44.1008 33.3093 44.3025C32.957 44.7033 32.5135 45.2033 32.0154 45.7475L5.46064 21.4402L-21.0941 -2.86716C-20.9071 -3.07141 -20.7538 -3.24941 -20.0335 -4.0737C-19.4641 -4.7253 -18.4707 -5.85971 -17.3074 -7.07592C-14.9452 -9.54549 -11.0021 -13.3124 -5.3619 -16.5357L12.5006 14.7202ZM5.46064 21.4402L-9.49685 54.1858C-18.8213 49.9265 -26.2216 42.5499 -30.4962 33.173L2.26064 18.2402L35.0175 3.30735C33.6855 0.385424 31.723 -2.61251 29.0135 -5.32115C26.3052 -8.02863 23.3161 -9.98167 20.4181 -11.3054L5.46064 21.4402ZM2.26064 18.2402L-23.929 -6.46004C-18.5582 -12.1547 -11.9028 -16.4037 -10.8844 -17.1094L9.62064 12.4802L30.1257 42.0697C29.737 42.3391 29.3532 42.6028 29.0456 42.8143C28.7172 43.0401 28.4577 43.2187 28.2128 43.3888C27.7201 43.7309 27.4607 43.9183 27.3098 44.0309C27.1683 44.1366 27.2331 44.0947 27.4228 43.9315C27.6172 43.7642 27.9856 43.4332 28.4503 42.9404L2.26064 18.2402ZM9.62064 12.4802L-25.2171 21.5537C-24.4564 24.4747 -23.2509 27.0448 -21.8903 29.1694C-20.6 31.1842 -19.3689 32.4855 -18.8447 33.0116C-18.4699 33.3878 -18.1721 33.6319 -19.1297 32.7918C-19.7408 32.2557 -21.5019 30.7279 -23.3194 28.8453L2.58064 3.84151L28.4807 -21.1623C27.9465 -21.7155 27.5721 -22.0172 28.3529 -21.3322C28.7871 -20.9512 30.482 -19.4911 32.161 -17.8059C36.0359 -13.9166 41.7369 -7.04261 44.4584 3.40667L9.62064 12.4802ZM2.58064 3.84151L-29.7083 -12.0777C-29.6961 -12.1026 -29.7165 -12.0612 -29.7018 -12.091C-29.6986 -12.0975 -29.6937 -12.1074 -29.688 -12.1189C-29.6769 -12.1414 -29.6594 -12.1768 -29.6385 -12.219C-29.5975 -12.3015 -29.5311 -12.4348 -29.449 -12.5961C-29.2895 -12.9095 -29.0188 -13.4317 -28.6633 -14.0617C-27.9816 -15.2697 -26.7089 -17.3808 -24.7428 -19.7206C-20.1756 -25.1558 -13.0033 -30.4061 -3.33457 -32.1966L3.22064 3.20151L9.77585 38.5997C19.0846 36.8758 26.0076 31.8022 30.3801 26.5986C33.6169 22.7465 35.4133 18.658 34.8696 19.7607L2.58064 3.84151ZM3.22064 3.20151L-19.0245 -25.1032C-16.1766 -27.3414 -8.13316 -33.0775 3.86014 -33.0775C15.8383 -33.0775 23.8738 -27.354 26.707 -25.1335L4.50064 3.20151L-17.7058 31.5366C-15.3471 33.385 -7.71502 38.9225 3.86014 38.9225C15.4504 38.9225 23.0912 33.3724 25.4657 31.5062L3.22064 3.20151ZM4.50064 3.20151L28.2089 -23.8894C32.6074 -20.0401 37.2339 -14.6557 37.7121 -14.1361L11.2206 10.2402L-15.2708 34.6165C-16.0068 33.8166 -16.7075 33.0339 -17.2196 32.4626C-17.7854 31.8314 -18.1664 31.4073 -18.5234 31.0198C-19.2377 30.2445 -19.3784 30.143 -19.2076 30.2924L4.50064 3.20151ZM11.2206 10.2402L-7.97508 -20.2151C-8.76421 -19.7177 -9.34194 -19.2918 -9.68499 -19.0276C-10.0342 -18.7586 -10.2545 -18.5685 -10.3224 -18.5093C-10.3927 -18.448 -10.3813 -18.4553 -10.2562 -18.5727C-10.1266 -18.6943 -9.95427 -18.8592 -9.66374 -19.1406L15.3806 6.72018L40.425 32.5809C39.5508 33.4275 35.5146 37.4821 30.4164 40.6955L11.2206 10.2402ZM15.3806 6.72018L-9.66212 -19.1422C-11.0032 -17.8436 -11.9595 -16.6383 -11.4114 -17.2954C-11.3713 -17.3435 -10.0273 -18.9977 -8.38601 -20.6461C-6.13637 -22.9054 6.34213 -35.2208 25.8905 -31.5352L19.2206 3.84151L12.5508 39.2182C21.0215 40.8153 28.5327 38.9874 33.9411 36.3379C38.6959 34.0085 41.633 31.1624 42.6353 30.1558C43.6593 29.1274 44.4152 28.1808 43.8797 28.8229C43.8521 28.856 42.3325 30.7339 40.4234 32.5825L15.3806 6.72018ZM19.2206 3.84151L54.8716 8.84271C53.7346 16.9476 50.3453 22.8425 48.1002 26.1229C45.9424 29.2758 43.6755 31.6476 43.0205 32.3414C41.7406 33.697 42.3238 33.0801 42.6424 32.7023C43.1499 32.1007 44.9959 29.8735 46.5979 26.3211L13.7806 11.5215L-19.0366 -3.27812C-17.8768 -5.84995 -16.6002 -7.98576 -15.4659 -9.66596C-14.336 -11.3398 -13.2473 -12.708 -12.3923 -13.7217C-11.5428 -14.7287 -10.777 -15.5576 -10.2881 -16.0789C-10.0392 -16.3443 -9.80924 -16.5859 -9.65874 -16.7439C-9.48044 -16.9311 -9.40696 -17.0082 -9.33221 -17.0873C-9.18052 -17.248 -9.35694 -17.0672 -9.64999 -16.7256C-9.94793 -16.3783 -10.5768 -15.6231 -11.3173 -14.541C-12.0602 -13.4555 -13.0839 -11.7982 -14.0415 -9.6136C-15.0169 -7.38832 -15.9558 -4.54203 -16.4303 -1.15969L19.2206 3.84151ZM13.7806 11.5215L43.1526 -9.29402C43.601 -8.66129 44.0124 -8.05644 44.2612 -7.69028C44.5677 -7.23925 44.7137 -7.02309 44.8839 -6.7765C45.2234 -6.28466 45.1415 -6.4327 44.8132 -6.83294L16.9806 16.0002L-10.8519 38.8333C-12.4042 36.941 -13.6401 35.183 -14.3716 34.1232C-14.7369 33.5939 -15.1057 33.0489 -15.2916 32.7753C-15.5352 32.4168 -15.5938 32.3336 -15.5913 32.337L13.7806 11.5215ZM16.9806 16.0002L44.8373 -6.80344C42.8585 -9.22082 40.8377 -10.8747 41.645 -10.166C41.658 -10.1546 42.2055 -9.67795 42.7306 -9.19698C43.2947 -8.68021 44.2755 -7.76029 45.3806 -6.56016C46.9325 -4.87477 52.2378 0.986168 54.501 10.3758C55.7717 15.6479 56.0226 21.791 54.3914 28.2004C52.7863 34.507 49.7675 39.4761 46.6936 43.106L19.2206 19.8415L-8.25234 -3.42296C-11.0295 -0.143398 -13.8665 4.47875 -15.3842 10.4419C-16.928 16.5078 -16.6842 22.3111 -15.4945 27.2469C-13.3934 35.9641 -8.54623 41.1673 -7.58533 42.2108C-6.29037 43.6172 -4.96455 44.7245 -5.85797 43.9401C-6.02472 43.7937 -6.67877 43.2224 -7.40624 42.531C-8.11479 41.8575 -9.43643 40.5624 -10.876 38.8038L16.9806 16.0002ZM16.6606 11.2015L-9.14866 -13.8959C-8.6214 -14.4381 -8.1405 -14.9155 -7.80767 -15.2445C-7.38602 -15.6612 -7.28576 -15.7582 -7.07015 -15.9732C-6.72545 -16.3167 -6.97863 -16.0832 -7.4063 -15.5822C-8.45553 -14.3533 -10.6332 -11.4592 -11.9806 -7.09195L22.4193 3.52151L56.8192 14.135C54.4158 21.9248 50.4635 27.523 47.3512 31.1683C45.8921 32.8773 44.5353 34.2472 43.7581 35.0218C42.6075 36.1687 42.7988 35.9608 42.4699 36.2989L16.6606 11.2015ZM22.4193 3.52151L0.898875 32.381C-2.0869 30.1545 -4.15936 27.9788 -5.16582 26.8846C-5.41786 26.6106 -5.62804 26.3761 -5.75577 26.233C-6.118 25.8273 -5.73259 26.2581 -5.96332 26C-6.02897 25.9265 -5.63976 26.3687 -5.06836 26.9427C-3.95848 28.0577 -0.80081 31.0948 4.28378 33.4679C9.90741 36.0925 15.7822 36.9541 21.1267 36.5272L18.2606 0.641509L15.3946 -35.2442C21.7324 -35.7504 28.4107 -34.7273 34.7341 -31.7761C40.5184 -29.0765 44.2721 -25.5477 45.9603 -23.8517C46.8209 -22.9872 47.4948 -22.2322 47.7203 -21.9799C48.1322 -21.519 47.9003 -21.7775 47.8258 -21.8584C47.4485 -22.2686 46.0735 -23.7469 43.9397 -25.338L22.4193 3.52151ZM18.2606 0.641509L21.1036 36.5291C26.6698 36.0881 31.0876 34.3686 34.1038 32.7782C37.0269 31.2368 39.0463 29.6023 40.109 28.6723C41.2018 27.716 41.9071 26.9491 42.0938 26.7447C42.2644 26.558 42.3606 26.4405 41.9854 26.8789C41.7554 27.1477 41.073 27.95 40.3011 28.7931C39.5123 29.6548 38.2327 31.0014 36.5735 32.4561C34.9359 33.892 32.4341 35.8738 29.1038 37.6861C25.7029 39.5369 21.0519 41.4194 15.3252 42.1286L10.9006 6.40151L6.47613 -29.3256C1.43307 -28.701 -2.55617 -27.0556 -5.31234 -25.5557C-7.99787 -24.0943 -9.87194 -22.5772 -10.8939 -21.6811C-11.9374 -20.7662 -12.6133 -20.0346 -12.8057 -19.8244C-12.9811 -19.6329 -13.0742 -19.5187 -12.7172 -19.9359C-12.5052 -20.1835 -11.8242 -20.9848 -11.066 -21.8148C-10.2918 -22.6624 -8.99629 -24.0318 -7.3056 -25.5113C-5.645 -26.9644 -3.02019 -29.0428 0.520921 -30.91C4.15514 -32.8264 9.20344 -34.7538 15.4177 -35.2461L18.2606 0.641509ZM10.9006 6.40151L-18.5601 27.0913C-18.6505 26.9625 -16.9751 29.4434 -13.2125 31.5197L4.18064 0.00017477L21.5738 -31.5193C30.9711 -26.3337 36.8411 -19.3008 40.3614 -14.2882L10.9006 6.40151ZM4.18064 0.00017477L33.0167 21.5519C29.5668 26.1679 25.8093 29.0552 23.4713 30.6458C22.2857 31.4524 21.2634 32.0587 20.6287 32.4245C20.3023 32.6125 20.022 32.7691 19.8379 32.8714C19.7446 32.9232 19.6606 32.9696 19.603 33.0014C19.5311 33.041 19.5117 33.0517 19.4757 33.0716C19.3204 33.1575 19.6255 32.9921 20.0499 32.7366C20.502 32.4643 21.3337 31.9455 22.3451 31.1967C24.3874 29.6846 27.6475 26.8821 30.4711 22.405L0.020639 3.20151L-30.4298 -16.0019C-27.1316 -21.2318 -23.2453 -24.6352 -20.4979 -26.6693C-19.134 -27.6791 -17.9301 -28.4392 -17.0951 -28.942C-16.2879 -29.4282 -15.5892 -29.8134 -15.3494 -29.9459C-14.9405 -30.1719 -15.1531 -30.0552 -15.3215 -29.9581C-15.5671 -29.8166 -16.2078 -29.4421 -17.0284 -28.8838C-18.6363 -27.7899 -21.7302 -25.4656 -24.6555 -21.5516L4.18064 0.00017477ZM0.020639 3.20151L31.4571 -14.3412C30.7699 -15.5728 30.1534 -16.3922 29.9051 -16.7091C29.7153 -16.9513 29.6582 -16.9974 30.2334 -16.3506C30.6005 -15.9377 31.7698 -14.6411 32.8782 -13.2987C34.0906 -11.8305 35.687 -9.77443 37.2867 -7.20942L6.74064 11.8415L-23.8054 30.8924C-23.189 31.8808 -22.6951 32.4791 -22.6407 32.5451C-22.6116 32.5803 -22.647 32.5361 -22.8107 32.3497C-23.0161 32.116 -23.1678 31.9473 -23.5721 31.4926C-24.6973 30.2271 -28.3603 26.2199 -31.4159 20.7442L0.020639 3.20151ZM6.74064 11.8415L36.4141 32.225C34.2269 35.409 31.948 37.7285 30.3159 39.2295C28.665 40.7478 27.1623 41.893 26.2098 42.5918C25.2784 43.275 24.3897 43.8789 24.0864 44.0863C23.6044 44.416 23.6889 44.3619 23.8509 44.2434C24.0408 44.1045 24.7554 43.5774 25.6844 42.7364C26.603 41.9048 28.1265 40.4139 29.7204 38.2349C31.3493 36.008 33.2421 32.8015 34.5304 28.6195C35.8616 24.2981 36.3219 19.6493 35.7738 14.9928L0.020639 19.2015L-35.7325 23.4103C-37.132 11.5212 -32.903 1.89365 -28.3921 -4.27312C-24.5333 -9.54847 -20.1456 -12.7801 -18.6636 -13.8644C-17.7433 -14.5377 -16.8677 -15.1328 -16.563 -15.3412C-16.0795 -15.6719 -16.1858 -15.6033 -16.3765 -15.4635C-16.5883 -15.3081 -17.3918 -14.7144 -18.4223 -13.7666C-19.434 -12.8362 -21.1713 -11.1063 -22.9328 -8.54201L6.74064 11.8415ZM0.020639 19.2015L35.7725 14.9822C35.1027 9.30642 33.1837 5.01921 31.7456 2.42088C30.2801 -0.226904 28.7604 -2.11861 27.7763 -3.23846C25.8885 -5.38667 24.2535 -6.62574 23.7967 -6.96827C22.7828 -7.72849 22.1866 -8.0289 22.0311 -8.11154L5.14064 23.6802L-11.7498 55.4719C-13.12 54.7439 -16.1762 53.0515 -19.3964 50.637C-20.9564 49.4673 -23.6311 47.3354 -26.3079 44.2894C-28.2627 42.0649 -34.3886 34.7975 -35.7312 23.4209L0.020639 19.2015ZM5.14064 23.6802L-13.312 -7.23097C-14.489 -6.52838 -15.3533 -5.86651 -15.8852 -5.42517C-16.3934 -5.00358 -16.6528 -4.73623 -16.5492 -4.83938C-16.5022 -4.88617 -16.4067 -4.98268 -16.2182 -5.17799C-16.1251 -5.27447 -16.0225 -5.38126 -15.8943 -5.51508C-15.7812 -5.63302 -15.613 -5.80873 -15.4644 -5.96355C-15.1527 -6.28824 -14.7374 -6.71921 -14.2771 -7.18524C-13.8108 -7.65726 -13.2526 -8.21177 -12.6231 -8.81015L12.1806 17.2815L36.9844 43.3732C37.05 43.3107 36.9829 43.3702 36.4774 43.8968C36.1324 44.2562 35.1866 45.252 34.2525 46.1821C32.2764 48.1497 28.6757 51.5574 23.5933 54.5913L5.14064 23.6802ZM12.1806 17.2815L19.8504 -17.892C25.6073 -16.6367 30.049 -14.2811 33.0712 -12.2751C36.06 -10.2912 38.2612 -8.24864 39.643 -6.85649C41.0528 -5.43605 42.142 -4.14678 42.7747 -3.37862C43.3394 -2.69308 43.9976 -1.85553 44.0535 -1.78513C44.2899 -1.48744 44.1007 -1.73629 43.7472 -2.1373C43.4042 -2.52641 42.4529 -3.58329 40.9887 -4.83149C39.558 -6.05115 36.9144 -8.08046 33.0835 -9.7693C29.0317 -11.5555 23.6096 -12.9665 17.2828 -12.569L19.5406 23.3602L21.7984 59.2893C7.53204 60.1858 -2.11876 53.0317 -5.72096 49.9609C-7.79032 48.1968 -9.33543 46.527 -10.2666 45.4706C-11.2082 44.4023 -11.98 43.4317 -12.3262 42.9958C-12.7831 42.4206 -12.418 42.8785 -12.7524 42.4579C-12.8419 42.3454 -12.8434 42.3448 -12.8016 42.3956C-12.7576 42.449 -12.2629 43.0543 -11.4592 43.864C-10.6836 44.6454 -9.1002 46.1505 -6.74651 47.7128C-4.35952 49.2972 -0.570334 51.347 4.51084 52.455L12.1806 17.2815ZM19.5406 23.3602L17.2969 -12.5698C8.63785 -12.0291 2.09207 -8.39669 -1.98017 -5.11705C-5.587 -2.21224 -7.6053 0.681719 -8.11478 1.41571C-8.55195 2.04555 -9.12441 2.98111 -8.35736 1.74401C-8.01452 1.19108 -6.69868 -0.957622 -4.79723 -3.28067L23.0606 19.5215L50.9185 42.3237C52.2306 40.7206 53.012 39.3993 52.8345 39.6855C52.8164 39.7147 52.7993 39.7425 52.7142 39.8811C52.6475 39.9894 52.5262 40.1868 52.3899 40.4051C52.1278 40.8251 51.6471 41.5863 51.0331 42.471C49.9911 43.9721 47.4139 47.5495 43.1811 50.9584C38.4829 54.7422 31.2441 58.6994 21.7844 59.2902L19.5406 23.3602ZM23.0606 19.5215L-6.85555 39.547C-5.96819 40.8727 -5.23225 41.6708 -5.21995 41.6844C-5.21526 41.6895 -5.26998 41.6292 -5.55282 41.3318C-5.75651 41.1176 -6.26068 40.5901 -6.74643 40.0666C-8.71681 37.9433 -13.6116 32.5845 -16.8384 24.3854L16.6606 11.2015L50.1597 -1.98239C49.23 -4.34451 48.1209 -6.15062 47.2579 -7.35828C46.4688 -8.46246 45.8563 -9.09661 46.0307 -8.90861C46.1354 -8.79581 46.2307 -8.69611 46.625 -8.28151C46.94 -7.95014 47.4816 -7.37995 48.0703 -6.73199C49.2507 -5.43281 51.1055 -3.29965 52.9768 -0.50402L23.0606 19.5215Z" fill="#52514B" mask="url(#path-1-inside-1_25_5909)"/>
</svg>
