<svg width="35" height="37" viewBox="0 0 35 37" fill="none" xmlns="http://www.w3.org/2000/svg">
<path fill-rule="evenodd" clip-rule="evenodd" d="M28.5932 31.7418C27.3958 29.3138 22.7118 27.1911 24.3198 24.2631C26.7625 25.8551 28.2438 28.4111 30.0185 30.6724C29.1265 30.6098 28.9025 31.2204 28.5932 31.7418ZM21.8265 21.0538C18.4572 26.1924 7.28118 24.2818 4.37718 17.8498C2.49318 13.6818 4.82651 7.36177 9.00651 3.96177C16.1252 2.9031 26.3132 14.2138 21.8265 21.0538ZM26.1012 21.4124C26.2585 19.1404 26.7185 17.0431 26.4572 15.0004C25.7918 9.84177 18.8012 1.62977 14.7025 0.400433C13.4425 0.0231001 11.7025 -0.0662335 10.4305 0.0444332C4.89851 3.86043 -0.84682 9.08043 0.103847 17.4951C1.05185 25.9111 10.9625 30.5418 20.4025 27.4671C22.8558 28.6084 25.1638 35.7324 27.8812 36.0138C29.3638 36.1658 30.4572 34.7324 31.7985 33.5204C33.0252 32.4138 34.8665 31.4324 34.6478 29.6044C30.8305 27.8404 28.5292 24.5618 26.1012 21.4124Z" fill="#52514B"/>
</svg>
