<svg width="792" height="203" viewBox="0 0 792 203" fill="none" xmlns="http://www.w3.org/2000/svg">
<g filter="url(#filter0_g_18_5072)">
<path d="M63.1357 181.92C60.9171 187.04 58.1864 190.027 54.9437 190.88C51.8717 191.563 49.3971 190.539 47.5197 187.808C45.6424 184.907 45.8131 180.896 48.0317 175.776C45.4717 178.848 42.7411 180.555 39.8397 180.896C36.9384 181.237 34.3784 180.555 32.1597 178.848C30.1117 177.141 28.9171 174.837 28.5757 171.936C28.4051 169.035 29.5997 166.048 32.1597 162.976C28.4051 164.683 24.9917 164.683 21.9197 162.976C19.0184 161.269 16.7144 158.709 15.0077 155.296C13.4717 151.883 12.9597 148.469 13.4717 145.056C14.1544 141.643 16.2877 139.083 19.8717 137.376C15.0931 137.717 11.3384 136.779 8.60773 134.56C6.04773 132.341 4.59707 129.696 4.25573 126.624C4.08507 123.381 5.10907 120.48 7.32773 117.92C9.5464 115.36 13.0451 113.909 17.8237 113.568C13.7277 113.568 10.5704 112.203 8.35173 109.472C6.30373 106.571 5.27973 103.328 5.27973 99.744C5.27973 95.9893 6.30373 92.7467 8.35173 90.016C10.5704 87.1146 13.7277 85.664 17.8237 85.664C15.0931 85.152 13.2157 83.4453 12.1917 80.544C11.1677 77.472 10.8264 73.9733 11.1677 70.048C11.5091 66.1226 12.3624 62.368 13.7277 58.784C15.0931 55.0293 16.8851 52.0426 19.1037 49.824C21.3224 47.6053 23.7971 46.752 26.5277 47.264C23.6264 44.192 22.5171 40.864 23.1997 37.28C24.0531 33.5253 25.9304 30.2826 28.8317 27.552C31.9037 24.8213 35.2317 23.2853 38.8157 22.944C42.5704 22.432 45.8984 23.712 48.7997 26.784C46.7517 21.4933 46.2397 17.568 47.2637 15.008C48.4584 12.448 50.3357 11.68 52.8957 12.704C55.6264 13.728 58.1011 16.8853 60.3197 22.176C58.9544 16.8853 59.2957 13.0453 61.3437 10.656C63.5624 8.26664 66.1224 7.66931 69.0237 8.86398C71.9251 10.0586 73.9731 13.3013 75.1677 18.592C74.9971 14.1546 76.1917 10.7413 78.7517 8.35197C81.4824 5.96264 84.6397 4.68264 88.2237 4.51198C91.9784 4.34131 95.3064 5.27998 98.2077 7.32797C101.109 9.37598 102.645 12.6186 102.816 17.056C103.328 12.6186 104.522 9.37598 106.4 7.32797C108.448 5.10931 110.581 4.17065 112.8 4.51198C115.189 4.68264 117.152 6.04797 118.688 8.60797C120.224 10.9973 120.736 14.496 120.224 19.104C121.248 15.3493 123.296 12.8746 126.368 11.68C129.44 10.4853 132.597 10.4 135.84 11.424C139.082 12.448 141.642 14.24 143.52 16.8C145.397 19.36 145.824 22.5173 144.8 26.272C147.189 23.0293 150.261 21.5786 154.016 21.92C157.77 22.2613 161.269 23.712 164.512 26.272C167.925 28.832 170.229 31.904 171.424 35.488C172.789 38.9013 172.192 42.2293 169.632 45.472C173.045 45.8133 175.434 47.008 176.8 49.056C178.336 51.104 178.933 53.408 178.592 55.968C178.421 58.3573 177.397 60.4907 175.52 62.368C173.813 64.0746 171.338 64.7573 168.096 64.416C168.096 66.8053 166.73 68.768 164 70.304C161.44 71.84 158.282 72.864 154.528 73.376C150.773 73.7173 146.933 73.7173 143.008 73.376C139.253 72.864 136.096 71.84 133.536 70.304C130.976 68.768 129.696 66.8053 129.696 64.416C128.33 67.6586 126.112 69.8773 123.04 71.072C120.138 72.096 116.896 72.2666 113.312 71.584C109.898 70.9013 106.656 69.6213 103.584 67.744C100.682 65.8666 98.5491 63.5626 97.1837 60.832C95.9891 63.5626 93.9411 65.696 91.0397 67.232C88.3091 68.768 85.4931 69.3653 82.5917 69.024C83.9571 72.096 83.7011 75.2533 81.8237 78.496C79.9464 81.7386 76.7891 83.2746 72.3517 83.104C75.7651 83.9573 77.8131 85.5786 78.4957 87.968C79.3491 90.1866 78.9224 92.32 77.2157 94.368C75.6797 96.416 72.9491 97.3546 69.0237 97.184C73.6317 97.184 76.7037 98.5493 78.2397 101.28C79.9464 103.84 80.1171 106.4 78.7517 108.96C77.3864 111.52 74.5704 112.8 70.3037 112.8C74.0584 112.8 76.8744 113.909 78.7517 116.128C80.6291 118.176 81.5677 120.651 81.5677 123.552C81.5677 126.453 80.5437 128.843 78.4957 130.72C80.8851 130.72 82.9331 131.488 84.6397 133.024C86.5171 134.56 87.7117 136.437 88.2237 138.656C90.7837 135.925 93.9411 134.475 97.6957 134.304C101.45 134.133 104.693 135.157 107.424 137.376C107.253 135.499 107.68 134.219 108.704 133.536C109.898 132.853 111.434 132.853 113.312 133.536L113.056 133.28C109.984 131.915 107.68 129.525 106.144 126.112C104.778 122.699 105.461 119.115 108.192 115.36C103.413 115.36 100.17 114.251 98.4637 112.032C96.9277 109.813 96.9277 107.68 98.4637 105.632C100.17 103.413 103.413 102.304 108.192 102.304C103.242 102.304 99.9144 101.365 98.2077 99.488C96.6717 97.6106 96.6717 95.7333 98.2077 93.856C99.9144 91.9786 103.242 91.04 108.192 91.04C108.192 88.3093 109.386 86.0906 111.776 84.384C114.165 82.6773 117.152 81.568 120.736 81.056C124.32 80.3733 127.904 80.288 131.488 80.8C135.072 81.312 138.058 82.4213 140.448 84.128C142.837 85.8346 144.032 88.0533 144.032 90.784C144.373 87.5413 146.25 85.3226 149.664 84.128C153.248 82.7626 157.173 82.336 161.44 82.848C165.877 83.1893 169.632 84.384 172.704 86.432C175.946 88.3093 177.397 90.8693 177.056 94.112C182.005 94.112 185.76 95.136 188.32 97.184C190.88 99.232 192.16 101.621 192.16 104.352C192.16 106.912 190.88 109.216 188.32 111.264C185.76 113.312 182.005 114.336 177.056 114.336C181.834 114.507 185.333 115.957 187.552 118.688C189.77 121.248 190.794 124.149 190.624 127.392C190.453 130.635 189.088 133.365 186.528 135.584C183.968 137.803 180.298 138.741 175.52 138.4C178.762 140.277 180.384 143.093 180.384 146.848C180.554 150.603 179.616 154.272 177.568 157.856C175.69 161.44 173.13 164.171 169.888 166.048C166.645 167.755 163.317 167.669 159.904 165.792C162.293 170.059 162.89 173.899 161.696 177.312C160.672 180.725 158.538 183.371 155.296 185.248C152.224 187.125 148.896 187.808 145.312 187.296C141.728 186.613 138.656 184.139 136.096 179.872C137.802 185.845 137.717 190.112 135.84 192.672C134.133 195.232 131.829 195.829 128.928 194.464C126.026 193.099 123.808 189.515 122.272 183.712C122.784 189.003 120.48 192.672 115.36 194.72C110.41 196.768 103.328 196.768 94.1117 194.72C85.0664 192.843 74.7411 188.576 63.1357 181.92ZM215.438 152.48C209.294 152.48 205.198 151.627 203.15 149.92C201.102 148.213 201.102 146.592 203.15 145.056C205.198 143.349 209.294 142.496 215.438 142.496C210.659 142.496 207.075 141.387 204.686 139.168C202.296 136.949 201.102 134.475 201.102 131.744C201.102 128.843 202.296 126.368 204.686 124.32C207.075 122.101 210.659 120.992 215.438 120.992C210.83 120.992 207.416 120.053 205.198 118.176C202.979 116.299 201.87 114.165 201.87 111.776C201.87 109.387 202.979 107.253 205.198 105.376C207.416 103.499 210.83 102.56 215.438 102.56C211.342 102.56 208.184 101.28 205.966 98.72C203.918 96.16 202.894 93.1733 202.894 89.76C202.894 86.3466 203.918 83.36 205.966 80.8C208.184 78.24 211.342 76.96 215.438 76.96C209.464 76.96 205.454 75.7653 203.406 73.376C201.358 70.9866 201.358 68.5973 203.406 66.208C205.454 63.8186 209.464 62.624 215.438 62.624C210.318 62.624 206.478 61.6 203.918 59.552C201.528 57.3333 200.334 54.8586 200.334 52.128C200.334 49.2266 201.528 46.752 203.918 44.704C206.478 42.4853 210.318 41.376 215.438 41.376C212.536 40.0106 210.83 37.9626 210.318 35.232C209.806 32.3306 210.147 29.5146 211.342 26.784C212.707 23.8826 214.584 21.664 216.974 20.128C219.363 18.592 222.008 18.4213 224.91 19.616C224.91 15.52 226.19 12.5333 228.75 10.656C231.31 8.60798 234.296 7.58398 237.71 7.58398C241.123 7.58398 244.11 8.60798 246.67 10.656C249.23 12.5333 250.51 15.52 250.51 19.616C252.387 17.056 254.52 15.6906 256.91 15.52C259.299 15.1786 261.432 15.6906 263.31 17.056C265.187 18.4213 266.382 20.2986 266.894 22.688C267.576 25.0773 266.979 27.552 265.102 30.112C269.539 30.112 272.867 31.648 275.086 34.72C277.475 37.6213 278.67 41.0346 278.67 44.96C278.67 48.7146 277.475 52.128 275.086 55.2C272.867 58.1013 269.539 59.552 265.102 59.552C269.368 59.552 272.526 61.0027 274.574 63.904C276.792 66.8053 277.902 70.1333 277.902 73.888C277.902 77.6426 276.792 80.9706 274.574 83.872C272.526 86.7733 269.368 88.224 265.102 88.224C270.904 88.224 274.744 89.0773 276.622 90.784C278.499 92.4906 278.499 94.1973 276.622 95.904C274.744 97.6106 270.904 98.464 265.102 98.464C270.904 98.464 274.915 99.5733 277.134 101.792C279.352 104.011 279.694 106.4 278.158 108.96C276.792 111.349 273.635 112.885 268.686 113.568C273.294 113.739 276.792 115.872 279.182 119.968C281.742 124.064 282.851 128.245 282.51 132.512C285.923 131.659 289.422 131.573 293.006 132.256C296.59 132.939 299.576 134.475 301.966 136.864C304.526 139.253 305.806 142.411 305.806 146.336C305.806 142.581 307 139.595 309.39 137.376C311.95 135.157 314.936 133.707 318.35 133.024C321.934 132.341 325.518 132.341 329.102 133.024C332.686 133.707 335.672 135.157 338.062 137.376C340.451 139.595 341.646 142.581 341.646 146.336C346.083 145.995 349.496 146.677 351.886 148.384C354.275 150.091 355.555 152.224 355.726 154.784C355.896 157.173 354.872 159.392 352.654 161.44C350.606 163.488 347.363 164.597 342.926 164.768C345.656 167.328 346.851 170.144 346.51 173.216C346.339 176.288 345.144 179.104 342.926 181.664C340.707 184.053 338.062 185.589 334.99 186.272C331.918 186.784 329.016 185.845 326.286 183.456C326.286 187.552 324.835 190.539 321.934 192.416C319.032 194.464 315.704 195.488 311.95 195.488C308.195 195.488 304.867 194.464 301.966 192.416C299.064 190.539 297.614 187.552 297.614 183.456C297.614 187.723 295.992 190.965 292.75 193.184C289.678 195.403 286.008 196.512 281.742 196.512C277.475 196.512 273.72 195.403 270.478 193.184C267.406 190.965 265.87 187.723 265.87 183.456C265.87 187.723 264.334 190.965 261.262 193.184C258.19 195.403 254.606 196.512 250.51 196.512C246.414 196.512 242.83 195.403 239.758 193.184C236.686 190.965 235.15 187.723 235.15 183.456C235.15 188.576 234.126 192.16 232.078 194.208C230.03 196.427 227.64 196.597 224.91 194.72C222.35 192.843 220.046 188.576 217.998 181.92C216.12 175.093 215.267 165.28 215.438 152.48ZM436.676 185.76C435.993 189.856 434.03 192.587 430.788 193.952C427.716 195.488 424.302 195.915 420.548 195.232C416.964 194.549 413.977 192.928 411.588 190.368C409.369 187.808 408.686 184.48 409.54 180.384C407.492 183.627 404.846 185.419 401.604 185.76C398.361 185.931 395.289 185.163 392.388 183.456C389.657 181.749 387.694 179.445 386.5 176.544C385.305 173.472 385.646 170.315 387.524 167.072C383.257 170.485 379.758 172.021 377.028 171.68C374.468 171.339 373.273 169.888 373.444 167.328C373.785 164.597 376.174 161.525 380.612 158.112C378.052 158.624 375.748 157.856 373.7 155.808C371.652 153.76 369.945 150.944 368.58 147.36C367.214 143.776 366.361 140.192 366.02 136.608C365.678 132.853 365.934 129.525 366.788 126.624C367.641 123.723 369.262 122.016 371.652 121.504C367.726 121.504 364.74 119.968 362.692 116.896C360.814 113.824 359.876 110.325 359.876 106.4C359.876 102.304 360.814 98.72 362.692 95.648C364.74 92.576 367.726 91.04 371.652 91.04C367.044 91.04 363.545 89.8453 361.156 87.456C358.937 84.896 357.828 81.9946 357.828 78.752C357.828 75.5093 358.937 72.6933 361.156 70.304C363.545 67.9146 367.044 66.72 371.652 66.72C367.044 66.72 363.545 65.2693 361.156 62.368C358.766 59.296 357.572 55.7973 357.572 51.872C357.572 47.9466 358.766 44.5333 361.156 41.632C363.545 38.56 367.044 37.024 371.652 37.024C367.214 37.024 363.886 36.1706 361.668 34.464C359.449 32.7573 358.34 30.7946 358.34 28.576C358.34 26.1866 359.449 24.1386 361.668 22.432C363.886 20.7253 367.214 19.872 371.652 19.872C371.652 15.4346 373.188 12.1066 376.26 9.88799C379.502 7.49864 383.257 6.30397 387.524 6.30397C391.79 6.30397 395.545 7.4133 398.788 9.63197C402.03 11.8506 403.652 15.1786 403.652 19.616C403.652 15.1786 404.505 11.8506 406.212 9.63197C408.089 7.24264 410.137 6.04797 412.356 6.04797C414.574 6.04797 416.537 7.24264 418.244 9.63197C420.121 11.8506 421.06 15.1786 421.06 19.616C426.009 19.7866 429.678 21.664 432.068 25.248C434.457 28.6613 435.566 32.672 435.396 37.28C435.396 41.888 434.116 45.984 431.556 49.568C428.996 52.9813 425.241 54.6026 420.292 54.432C424.388 54.432 427.374 55.6266 429.252 58.016C431.3 60.4053 432.324 63.136 432.324 66.208C432.324 69.28 431.3 72.0106 429.252 74.4C427.374 76.6186 424.388 77.728 420.292 77.728C426.948 77.728 431.3 78.6666 433.348 80.544C435.566 82.4213 435.566 84.2986 433.348 86.176C431.3 88.0533 426.948 88.992 420.292 88.992C424.046 88.992 426.862 90.1866 428.74 92.576C430.617 94.9653 431.641 97.7813 431.812 101.024C431.982 104.096 431.214 106.997 429.508 109.728C427.972 112.288 425.497 113.824 422.084 114.336C426.521 113.995 429.934 114.763 432.324 116.64C434.713 118.517 435.993 120.821 436.164 123.552C436.505 126.283 435.737 128.757 433.86 130.976C436.761 130.976 438.041 132.171 437.7 134.56C443.161 132.171 448.622 132.341 454.084 135.072C454.254 131.659 455.534 128.928 457.924 126.88C460.484 124.661 463.641 123.808 467.396 124.32C465.006 122.272 463.385 119.371 462.532 115.616C461.678 111.861 461.508 108.021 462.02 104.096C462.532 100.171 463.726 96.8427 465.604 94.112C467.652 91.3813 470.297 90.016 473.54 90.016C468.761 90.016 465.177 88.3093 462.788 84.896C460.569 81.312 459.46 77.3013 459.46 72.864C459.46 68.256 460.569 64.2453 462.788 60.832C465.177 57.248 468.761 55.456 473.54 55.456C469.444 55.456 466.372 54.176 464.324 51.616C462.276 49.056 461.252 46.1546 461.252 42.912C461.252 39.4986 462.276 36.512 464.324 33.952C466.372 31.392 469.444 30.112 473.54 30.112C470.126 27.7227 468.42 25.248 468.42 22.688C468.59 20.128 469.87 18.4213 472.26 17.568C474.649 16.544 477.55 17.2266 480.964 19.616C480.964 14.8373 481.902 11.2533 483.78 8.86398C485.657 6.47465 487.79 5.27998 490.18 5.27998C492.569 5.27998 494.702 6.47465 496.58 8.86398C498.457 11.2533 499.396 14.8373 499.396 19.616C499.396 15.1786 500.249 11.8506 501.956 9.63197C503.833 7.24264 505.881 6.04797 508.1 6.04797C510.318 6.04797 512.281 7.24264 513.988 9.63197C515.865 11.8506 516.804 15.1786 516.804 19.616C520.729 18.7626 523.886 19.5306 526.276 21.92C528.836 24.1387 530.457 27.04 531.14 30.624C531.993 34.0373 531.652 37.3653 530.116 40.608C528.75 43.68 526.105 45.5573 522.18 46.24C526.105 46.24 529.092 47.9466 531.14 51.36C533.188 54.7733 534.212 58.6986 534.212 63.136C534.212 67.5733 533.188 71.4986 531.14 74.912C529.092 78.1546 526.105 79.776 522.18 79.776C525.764 79.776 528.665 81.056 530.884 83.616C533.102 86.0053 534.553 89.0773 535.236 92.832C535.918 96.416 535.918 100 535.236 103.584C534.553 107.168 533.102 110.24 530.884 112.8C528.665 115.189 525.764 116.384 522.18 116.384C527.982 116.384 531.822 117.323 533.7 119.2C535.748 121.077 535.748 122.955 533.7 124.832C531.822 126.709 527.982 127.648 522.18 127.648C528.665 128.501 532.846 130.208 534.724 132.768C536.601 135.157 536.26 137.376 533.7 139.424C531.31 141.301 526.873 141.813 520.388 140.96C524.313 143.008 526.617 145.824 527.3 149.408C527.982 152.992 527.47 156.491 525.764 159.904C524.057 163.147 521.497 165.536 518.084 167.072C514.841 168.608 511.172 168.267 507.076 166.048C510.489 170.144 512.11 173.472 511.94 176.032C511.94 178.421 510.66 179.531 508.1 179.36C505.71 179.019 502.809 176.8 499.396 172.704C501.444 176.971 502.041 180.64 501.188 183.712C500.505 186.613 498.969 188.661 496.58 189.856C494.361 190.88 491.801 190.795 488.9 189.6C486.169 188.235 483.78 185.419 481.732 181.152C482.414 185.589 481.049 189.088 477.636 191.648C474.393 194.379 470.126 196 464.836 196.512C459.716 197.195 454.51 196.683 449.22 194.976C444.1 193.269 439.918 190.197 436.676 185.76ZM564.188 158.624C560.092 158.624 556.934 157.259 554.716 154.528C552.668 151.627 551.644 148.299 551.644 144.544C551.644 140.619 552.668 137.291 554.716 134.56C556.934 131.659 560.092 130.208 564.188 130.208C560.092 130.208 557.02 129.099 554.972 126.88C553.094 124.661 552.156 122.187 552.156 119.456C552.156 116.555 553.094 114.08 554.972 112.032C557.02 109.813 560.092 108.704 564.188 108.704C557.873 108.704 553.606 107.424 551.388 104.864C549.34 102.304 549.34 99.744 551.388 97.184C553.606 94.624 557.873 93.344 564.188 93.344C559.921 93.344 556.678 92.32 554.46 90.272C552.241 88.224 551.132 85.8346 551.132 83.104C551.132 80.3733 552.241 77.984 554.46 75.936C556.678 73.888 559.921 72.864 564.188 72.864C559.409 72.864 555.825 71.328 553.436 68.256C551.217 65.184 550.108 61.6853 550.108 57.76C550.108 53.664 551.217 50.08 553.436 47.008C555.825 43.936 559.409 42.4 564.188 42.4C560.945 41.376 558.897 39.4986 558.044 36.768C557.361 33.8666 557.446 30.9653 558.3 28.064C559.324 24.992 560.945 22.6026 563.164 20.896C565.553 19.0186 568.369 18.592 571.612 19.616C571.612 14.3253 572.55 10.8266 574.428 9.11998C576.305 7.41331 578.182 7.41331 580.06 9.11998C581.937 10.8266 582.876 14.3253 582.876 19.616C582.876 16.544 584.156 14.0693 586.716 12.192C589.276 10.3146 592.433 9.11997 596.188 8.60797C600.113 7.92531 603.953 7.92531 607.708 8.60797C611.633 9.11997 614.876 10.3146 617.436 12.192C620.166 14.0693 621.532 16.544 621.532 19.616C621.532 14.1546 622.812 10.5706 625.372 8.86398C628.102 6.98664 630.833 6.98664 633.564 8.86398C636.294 10.5706 637.66 14.1546 637.66 19.616C637.66 15.008 638.769 11.5946 640.988 9.37598C643.206 7.15731 645.681 6.04797 648.412 6.04797C651.313 6.04797 653.788 7.15731 655.836 9.37598C658.054 11.5946 659.164 15.008 659.164 19.616C659.164 16.544 660.358 14.0693 662.748 12.192C665.137 10.3146 668.038 9.11997 671.452 8.60797C675.036 7.92531 678.62 7.92531 682.204 8.60797C685.788 9.11997 688.774 10.3146 691.164 12.192C693.553 14.0693 694.748 16.544 694.748 19.616C699.868 20.128 703.196 21.2373 704.732 22.944C706.438 24.48 706.353 26.016 704.476 27.552C702.598 28.9173 699.1 29.344 693.98 28.832C698.417 29.344 701.66 30.9653 703.708 33.696C705.756 36.4266 706.609 39.4986 706.268 42.912C705.926 46.1546 704.476 48.9707 701.916 51.36C699.526 53.5786 696.113 54.5173 691.676 54.176C691.676 59.6373 690.737 63.3066 688.86 65.184C686.982 66.8906 685.105 66.8906 683.228 65.184C681.35 63.3066 680.412 59.6373 680.412 54.176C680.412 59.296 679.046 62.7947 676.316 64.672C673.756 66.3786 671.11 66.3786 668.38 64.672C665.649 62.7947 664.284 59.296 664.284 54.176C664.284 56.736 663.004 58.784 660.444 60.32C657.884 61.856 654.726 62.7946 650.972 63.136C647.388 63.4773 643.804 63.392 640.22 62.88C636.636 62.1973 633.905 60.9173 632.028 59.04C632.369 61.088 632.198 63.0506 631.516 64.928C630.833 66.8053 629.724 68.4266 628.188 69.792C630.236 71.1573 631.857 72.864 633.052 74.912C634.417 76.7893 635.185 78.8373 635.356 81.056C636.721 79.008 638.769 77.6426 641.5 76.96C644.23 76.1066 647.046 75.8506 649.948 76.192C652.849 76.5333 655.324 77.5573 657.372 79.264C659.42 80.8 660.444 82.9333 660.444 85.664C660.444 81.9093 661.382 79.0933 663.26 77.216C665.308 75.3386 667.612 74.4 670.172 74.4C672.732 74.4 674.95 75.3386 676.828 77.216C678.876 79.0933 679.9 81.9093 679.9 85.664C681.948 80.3733 683.996 77.1306 686.044 75.936C688.092 74.7413 689.457 75.3386 690.14 77.728C690.993 79.9467 690.396 83.7013 688.348 88.992C693.126 89.3333 696.54 91.04 698.588 94.112C700.806 97.184 701.745 100.597 701.404 104.352C701.062 108.107 699.612 111.349 697.052 114.08C694.492 116.64 690.822 117.749 686.044 117.408C686.044 119.968 684.764 122.016 682.204 123.552C679.814 125.088 676.742 126.112 672.988 126.624C669.404 127.136 665.734 127.136 661.98 126.624C658.396 126.112 655.324 125.088 652.764 123.552C650.374 122.016 649.18 119.968 649.18 117.408C649.18 120.821 647.9 123.296 645.34 124.832C642.78 126.368 639.964 126.965 636.892 126.624C633.99 126.283 631.772 124.917 630.236 122.528C630.065 124.576 629.382 126.368 628.188 127.904C627.164 129.44 625.884 130.635 624.348 131.488C626.225 133.195 627.078 135.243 626.908 137.632C628.956 138.144 630.748 139.339 632.284 141.216C633.82 143.093 634.588 145.653 634.588 148.896C634.588 145.824 636.209 143.52 639.452 141.984C642.865 140.277 646.705 139.424 650.972 139.424C655.238 139.424 658.993 140.277 662.236 141.984C665.649 143.52 667.356 145.824 667.356 148.896C667.356 143.605 668.636 140.107 671.196 138.4C673.756 136.693 676.23 136.693 678.62 138.4C681.18 140.107 682.46 143.605 682.46 148.896C684.849 145.483 687.58 143.947 690.652 144.288C693.724 144.629 695.942 146.165 697.308 148.896C698.844 151.627 698.417 154.699 696.028 158.112C699.612 159.477 701.83 161.781 702.684 165.024C703.537 168.267 703.366 171.595 702.172 175.008C700.977 178.251 698.929 180.811 696.028 182.688C693.297 184.565 690.14 184.821 686.556 183.456C686.556 188.064 685.532 191.477 683.484 193.696C681.606 196.085 679.388 197.28 676.828 197.28C674.268 197.28 672.049 196.085 670.172 193.696C668.294 191.477 667.356 188.064 667.356 183.456C667.356 188.235 665.905 191.733 663.004 193.952C660.273 196.341 657.116 197.536 653.532 197.536C649.948 197.536 646.705 196.341 643.804 193.952C641.073 191.733 639.708 188.235 639.708 183.456C639.708 187.723 638.598 190.88 636.38 192.928C634.161 195.147 631.516 196.256 628.444 196.256C625.542 196.256 622.982 195.147 620.764 192.928C618.545 190.88 617.436 187.723 617.436 183.456C617.436 188.405 615.985 192.075 613.084 194.464C610.353 197.024 607.196 198.304 603.612 198.304C600.028 198.304 596.785 197.024 593.884 194.464C591.153 192.075 589.788 188.405 589.788 183.456C589.788 187.723 588.422 190.709 585.692 192.416C583.132 194.293 580.145 194.464 576.732 192.928C573.318 191.563 570.332 188.149 567.772 182.688C565.212 177.056 564.017 169.035 564.188 158.624ZM730.33 169.12C726.746 169.12 724.015 167.669 722.138 164.768C720.431 161.867 719.578 158.539 719.578 154.784C719.578 151.029 720.431 147.787 722.138 145.056C724.015 142.155 726.746 140.704 730.33 140.704C729.647 135.925 730.159 132.597 731.866 130.72C733.743 128.843 735.706 128.587 737.754 129.952C739.972 131.317 741.423 134.389 742.106 139.168C742.106 135.755 743.3 133.28 745.69 131.744C748.079 130.037 750.895 129.184 754.138 129.184C757.38 129.184 760.196 130.037 762.586 131.744C764.975 133.28 766.17 135.755 766.17 139.168C768.559 135.925 770.863 134.304 773.082 134.304C775.471 134.304 777.092 135.413 777.946 137.632C778.799 139.851 778.116 142.581 775.898 145.824C778.799 145.824 781.103 147.019 782.81 149.408C784.516 151.797 785.626 154.784 786.138 158.368C786.82 161.781 786.82 165.28 786.138 168.864C785.626 172.277 784.516 175.179 782.81 177.568C781.103 179.957 778.799 181.152 775.898 181.152C777.604 185.419 778.031 188.576 777.178 190.624C776.324 192.501 774.874 193.013 772.826 192.16C770.778 191.477 768.9 189.003 767.194 184.736C767.194 187.637 765.999 189.941 763.61 191.648C761.22 193.355 758.148 194.208 754.394 194.208C750.81 194.379 747.14 193.611 743.386 191.904C739.802 190.368 736.73 187.723 734.17 183.968C731.78 180.043 730.5 175.093 730.33 169.12Z" fill="black"/>
</g>
<defs>
<filter id="filter0_g_18_5072" x="0" y="0" width="791.162" height="202.304" filterUnits="userSpaceOnUse" color-interpolation-filters="sRGB">
<feFlood flood-opacity="0" result="BackgroundImageFix"/>
<feBlend mode="normal" in="SourceGraphic" in2="BackgroundImageFix" result="shape"/>
<feTurbulence type="fractalNoise" baseFrequency="2 2" numOctaves="3" seed="6815" />
<feDisplacementMap in="shape" scale="8" xChannelSelector="R" yChannelSelector="G" result="displacedImage" width="100%" height="100%" />
<feMerge result="effect1_texture_18_5072">
<feMergeNode in="displacedImage"/>
</feMerge>
</filter>
</defs>
</svg>
